<svg width="158" height="27" viewBox="0 0 158 27" fill="none" xmlns="http://www.w3.org/2000/svg">
<path d="M0 6.0468C0 6.94347 0.478364 7.77202 1.2549 8.22036L10.3922 13.4958V7.49584L20.7843 13.4958V8.94488C20.7843 8.04821 20.3059 7.21966 19.5294 6.77133L10.3922 1.49592V7.49584L0 1.49592V6.0468Z" fill="#0F0F14"/>
<path d="M20.7843 13.4958L10.3922 19.4958V13.4958L1.2549 18.7713C0.478366 19.2197 0 20.0482 0 20.9449V25.4958L10.3922 19.4958V25.4958L19.5294 20.2204C20.3059 19.772 20.7843 18.9435 20.7843 18.0468V13.4958Z" fill="#0F0F14"/>
<path d="M35.0228 20.4991C36.2288 21.1833 37.5978 21.5091 39.0972 21.5091C40.9878 21.5091 42.585 20.9878 43.9214 19.9453C45.2578 18.9027 46.1053 17.5344 46.4639 15.8402H42.9761C42.6176 16.6873 42.096 17.3063 41.4441 17.7624C40.7922 18.2185 40.0099 18.4466 39.1298 18.4466C37.826 18.4466 36.7177 17.9905 35.8703 17.0782C35.0228 16.166 34.599 14.9931 34.599 13.5596C34.599 12.1261 35.0228 10.9532 35.8703 10.041C36.7177 9.12877 37.826 8.67265 39.1298 8.67265C40.0425 8.67265 40.8248 8.90071 41.4767 9.35683C42.1286 9.81295 42.6502 10.4645 42.9761 11.2465H46.4639C46.1053 9.61747 45.2578 8.24912 43.9214 7.17398C42.585 6.13143 40.9878 5.57757 39.0972 5.57757C37.5978 5.57757 36.2288 5.93595 35.0228 6.62013C33.8167 7.3043 32.8714 8.24912 32.1869 9.45457C31.5024 10.6926 31.1765 12.061 31.1765 13.5596C31.1765 15.0909 31.5024 16.4592 32.1869 17.6647C32.8714 18.9027 33.8167 19.8475 35.0228 20.4991Z" fill="#0F0F14"/>
<path d="M58.8773 6.55497C57.7039 5.90337 56.4001 5.57757 54.9659 5.57757C53.4665 5.57757 52.13 5.93595 50.9566 6.62013C49.7505 7.33688 48.8053 8.2817 48.1207 9.48715C47.4362 10.7252 47.1103 12.061 47.1103 13.5596C47.1103 15.1235 47.4362 16.4918 48.0881 17.6973C48.7401 18.9027 49.6201 19.8475 50.7284 20.4991C51.8367 21.1833 53.0753 21.5091 54.4443 21.5091C55.4548 21.5091 56.4001 21.281 57.3127 20.8249C58.1928 20.3688 58.9099 19.6846 59.4641 18.8375L59.7248 21.1833H62.7562V13.5596C62.7562 11.9306 62.3977 10.5297 61.7132 9.32425C60.9961 8.1188 60.0508 7.20656 58.8773 6.55497ZM57.1172 17.8927C56.4327 18.2837 55.7156 18.4466 54.9659 18.4466C53.662 18.4466 52.5864 18.0231 51.7715 17.1108C50.924 16.1986 50.5328 15.0257 50.5328 13.5596C50.5328 12.6148 50.7284 11.7677 51.1196 11.0184C51.5107 10.2691 52.0322 9.68263 52.7167 9.25909C53.3687 8.86813 54.1184 8.64007 54.9659 8.64007C55.7482 8.64007 56.4653 8.83555 57.1498 9.22651C57.8017 9.61747 58.3558 10.2039 58.747 10.9532C59.1381 11.7026 59.3663 12.5822 59.3663 13.5596C59.3663 14.5696 59.1381 15.4493 58.747 16.1986C58.3232 16.9479 57.7691 17.5018 57.1172 17.8927Z" fill="#0F0F14"/>
<path d="M76.127 6.62013C74.9536 5.93595 73.6172 5.57757 72.1829 5.57757C70.7487 5.57757 69.4775 5.90337 68.304 6.55497C67.1306 7.20656 66.1853 8.15138 65.4682 9.35683C64.7511 10.5949 64.4252 11.9958 64.4252 13.6248V26.8684H67.8803V19.1633C68.467 19.9127 69.1841 20.4991 70.0968 20.8901C70.9769 21.3136 71.8896 21.5091 72.8675 21.5091C74.1713 21.5091 75.3447 21.1833 76.453 20.4991C77.5286 19.8475 78.3761 18.9027 79.0281 17.6647C79.6474 16.4592 79.9733 15.0909 79.9733 13.527C79.9733 12.0284 79.6148 10.6926 78.9303 9.48715C78.2457 8.2817 77.3005 7.33688 76.127 6.62013ZM75.3447 17.0782C74.5298 17.9905 73.5194 18.4466 72.2807 18.4466C71.4984 18.4466 70.7813 18.2511 70.0968 17.8602C69.4123 17.4692 68.8582 16.9153 68.467 16.166C68.0433 15.4492 67.8477 14.5696 67.8477 13.527C67.8477 12.5496 68.0433 11.67 68.4344 10.9207C68.8256 10.2039 69.3797 9.61747 70.0316 9.22651C70.6835 8.83555 71.4006 8.64007 72.1829 8.64007C73.4216 8.64007 74.432 9.09619 75.2795 10.0084C76.127 10.9207 76.5508 12.0935 76.5508 13.527C76.5508 14.9931 76.127 16.166 75.3447 17.0782Z" fill="#0F0F14"/>
<path d="M85.1491 20.4991C86.3552 21.1833 87.7242 21.5091 89.2236 21.5091C91.1142 21.5091 92.7114 20.9878 94.0478 19.9453C95.3842 18.9027 96.2317 17.5344 96.5903 15.8402H93.1025C92.744 16.6873 92.2224 17.3063 91.5705 17.7624C90.9186 18.2185 90.1363 18.4466 89.2562 18.4466C87.9524 18.4466 86.8441 17.9905 85.9966 17.0782C85.1492 16.166 84.7254 14.9931 84.7254 13.5596C84.7254 12.1261 85.1492 10.9532 85.9966 10.041C86.8441 9.12877 87.9524 8.67265 89.2562 8.67265C90.1689 8.67265 90.9512 8.90071 91.6031 9.35683C92.255 9.81295 92.7766 10.4645 93.1025 11.2465H96.5903C96.2317 9.61747 95.3842 8.24912 94.0478 7.17398C92.7114 6.13143 91.1142 5.57757 89.2236 5.57757C87.7242 5.57757 86.3552 5.93595 85.1491 6.62013C83.9431 7.3043 82.9978 8.24912 82.3133 9.45457C81.6288 10.6926 81.3029 12.061 81.3029 13.5596C81.3029 15.0909 81.6288 16.4592 82.3133 17.6647C82.9978 18.9027 83.9431 19.8475 85.1491 20.4991Z" fill="#0F0F14"/>
<path d="M109.024 6.32691C108.144 5.83821 107.167 5.57757 106.123 5.57757C105.146 5.57757 104.265 5.80563 103.418 6.22917C102.571 6.65271 101.886 7.27172 101.364 8.1188V0.123291H97.9419V21.1833H101.364V13.0058C101.364 12.1587 101.527 11.4094 101.886 10.7578C102.245 10.1062 102.701 9.58489 103.288 9.22651C103.874 8.86813 104.461 8.67265 105.113 8.67265C106.026 8.67265 106.808 9.03103 107.46 9.68263C108.112 10.3668 108.438 11.3768 108.438 12.7451V21.1833H111.893V12.1261C111.893 10.7252 111.632 9.51973 111.111 8.54234C110.589 7.56494 109.872 6.81561 109.024 6.32691Z" fill="#0F0F14"/>
<path d="M125.221 6.55497C124.048 5.90337 122.744 5.57757 121.31 5.57757C119.81 5.57757 118.474 5.93595 117.3 6.62013C116.094 7.33688 115.149 8.2817 114.465 9.48715C113.78 10.7252 113.454 12.061 113.454 13.5596C113.454 15.1235 113.78 16.4918 114.432 17.6973C115.084 18.9027 115.964 19.8475 117.072 20.4991C118.18 21.1833 119.419 21.5091 120.788 21.5091C121.799 21.5091 122.744 21.281 123.657 20.8249C124.537 20.3688 125.254 19.6846 125.808 18.8375L126.069 21.1833H129.1V13.5596C129.1 11.9306 128.741 10.5297 128.057 9.32425C127.34 8.1188 126.395 7.20656 125.221 6.55497ZM123.461 17.8927C122.776 18.2837 122.059 18.4466 121.31 18.4466C120.006 18.4466 118.93 18.0231 118.115 17.1108C117.268 16.1986 116.877 15.0257 116.877 13.5596C116.877 12.6148 117.072 11.7677 117.463 11.0184C117.854 10.2691 118.376 9.68263 119.061 9.25909C119.712 8.86813 120.462 8.64007 121.31 8.64007C122.092 8.64007 122.809 8.83555 123.494 9.22651C124.145 9.61747 124.7 10.2039 125.091 10.9532C125.482 11.7026 125.71 12.5822 125.71 13.5596C125.71 14.5696 125.482 15.4493 125.091 16.1986C124.667 16.9479 124.113 17.5018 123.461 17.8927Z" fill="#0F0F14"/>
<path d="M132.008 20.1407C133.116 21.053 134.55 21.5091 136.278 21.5091C137.842 21.5091 139.179 21.1181 140.287 20.3036C141.363 19.4891 141.917 18.414 141.917 17.1108C141.917 16.0683 141.656 15.2538 141.167 14.6022C140.678 13.9506 140.091 13.4619 139.407 13.1361C138.722 12.8103 137.875 12.5171 136.832 12.1913C135.789 11.9306 135.039 11.6374 134.55 11.3442C134.061 11.0836 133.833 10.66 133.833 10.1062C133.833 9.61747 134.029 9.19393 134.42 8.86813C134.811 8.54234 135.3 8.37944 135.919 8.37944C136.571 8.37944 137.093 8.57491 137.484 8.93329C137.875 9.29167 138.136 9.78036 138.266 10.3994H141.623C141.46 8.90071 140.874 7.69526 139.863 6.84819C138.82 6.00111 137.516 5.57757 135.919 5.57757C134.811 5.57757 133.833 5.80563 133.018 6.22917C132.171 6.65271 131.551 7.20656 131.128 7.89074C130.704 8.60749 130.508 9.32425 130.508 10.1062C130.508 11.1487 130.736 11.9958 131.225 12.6148C131.682 13.2664 132.268 13.7225 132.953 14.0483C133.605 14.3741 134.485 14.6999 135.528 14.9931C136.571 15.3189 137.321 15.6121 137.81 15.8728C138.299 16.166 138.559 16.5895 138.559 17.1108C138.559 17.5669 138.364 17.9579 137.973 18.2511C137.581 18.5769 136.995 18.7072 136.278 18.7072C135.561 18.7072 134.941 18.5118 134.42 18.1208C133.898 17.7298 133.605 17.2086 133.54 16.4918H130.182C130.247 17.9905 130.867 19.2285 132.008 20.1407Z" fill="#0F0F14"/>
<path d="M157.732 14.7977C157.732 14.4719 157.765 14.0809 157.765 13.5596C157.765 12.061 157.439 10.7252 156.787 9.48715C156.135 8.2817 155.222 7.33688 154.081 6.62013C152.941 5.93595 151.702 5.57757 150.333 5.57757C148.833 5.57757 147.497 5.93595 146.324 6.62013C145.15 7.3043 144.205 8.24912 143.553 9.45457C142.901 10.66 142.575 12.0284 142.575 13.5596C142.575 15.1235 142.901 16.4918 143.553 17.6973C144.205 18.9027 145.15 19.8475 146.324 20.4991C147.497 21.1833 148.866 21.5091 150.365 21.5091C151.995 21.5091 153.462 21.0856 154.766 20.2059C156.037 19.3262 156.917 18.1208 157.374 16.5895H154.016C153.364 17.8927 152.126 18.5118 150.333 18.5118C149.225 18.5118 148.279 18.186 147.497 17.5344C146.715 16.8828 146.193 15.9705 145.998 14.7977H157.732ZM147.497 9.55231C148.279 8.90071 149.225 8.57491 150.333 8.57491C151.376 8.57491 152.289 8.93329 153.071 9.65005C153.821 10.3668 154.244 11.2139 154.375 12.1913H145.998C146.226 11.0836 146.715 10.2039 147.497 9.55231Z" fill="#0F0F14"/>
</svg>
